<svg width="25" height="21" viewBox="0 0 25 21" fill="none" xmlns="http://www.w3.org/2000/svg">
<path d="M13.5946 7.74154C13.1524 7.74286 12.7231 7.89083 12.374 8.16228C12.025 8.43372 11.7758 8.8133 11.6656 9.24154H9.55957C9.46634 8.49913 9.16664 7.79779 8.69455 7.21727C8.22247 6.63675 7.59695 6.20036 6.88914 5.95773C6.18133 5.7151 5.41964 5.67597 4.69069 5.84479C3.96174 6.01361 3.2948 6.3836 2.76571 6.91269C2.23663 7.44177 1.86663 8.10872 1.69782 8.83766C1.529 9.56661 1.56813 10.3283 1.81076 11.0361C2.05338 11.7439 2.48977 12.3694 3.07029 12.8415C3.65081 13.3136 4.35216 13.6133 5.09457 13.7065V15.8125C4.62324 15.9342 4.21248 16.2237 3.93927 16.6265C3.66606 17.0294 3.54917 17.5181 3.61051 18.001C3.67185 18.484 3.9072 18.9279 4.27245 19.2497C4.63771 19.5715 5.10778 19.749 5.59457 19.749C6.08136 19.749 6.55143 19.5715 6.91669 19.2497C7.28194 18.9279 7.51729 18.484 7.57863 18.001C7.63997 17.5181 7.52308 17.0294 7.24987 16.6265C6.97667 16.2237 6.5659 15.9342 6.09457 15.8125V13.707C6.80535 13.6176 7.47875 13.3377 8.04357 12.897L9.87807 14.732C9.69441 15.0369 9.59646 15.3857 9.59457 15.7415C9.59457 16.1371 9.71187 16.5238 9.93163 16.8527C10.1514 17.1816 10.4638 17.4379 10.8292 17.5893C11.1947 17.7407 11.5968 17.7803 11.9848 17.7031C12.3727 17.6259 12.7291 17.4355 13.0088 17.1558C13.2885 16.8761 13.479 16.5197 13.5561 16.1317C13.6333 15.7438 13.5937 15.3416 13.4423 14.9762C13.291 14.6107 13.0346 14.2984 12.7057 14.0786C12.3768 13.8588 11.9901 13.7415 11.5946 13.7415C11.2387 13.7434 10.8899 13.8414 10.5851 14.025L8.75007 12.19C9.19086 11.6254 9.4709 10.9522 9.56057 10.2415H11.6661C11.7602 10.6028 11.9538 10.9305 12.2248 11.1873C12.4959 11.4441 12.8335 11.6198 13.1993 11.6943C13.5652 11.7689 13.9446 11.7394 14.2945 11.6091C14.6444 11.4789 14.9508 11.2531 15.1789 10.9575C15.4069 10.6619 15.5475 10.3082 15.5846 9.93668C15.6218 9.56517 15.554 9.19068 15.389 8.85575C15.224 8.52081 14.9684 8.23886 14.6512 8.04191C14.334 7.84496 13.9679 7.74089 13.5946 7.74154ZM6.59457 17.7415C6.59457 17.9393 6.53592 18.1327 6.42604 18.2971C6.31616 18.4616 6.15998 18.5897 5.97725 18.6654C5.79453 18.7411 5.59346 18.7609 5.39948 18.7223C5.2055 18.6837 5.02732 18.5885 4.88746 18.4486C4.74761 18.3088 4.65237 18.1306 4.61378 17.9366C4.5752 17.7427 4.595 17.5416 4.67069 17.3589C4.74638 17.1761 4.87455 17.02 5.039 16.9101C5.20345 16.8002 5.39679 16.7415 5.59457 16.7415C5.85971 16.7418 6.11391 16.8472 6.30138 17.0347C6.48886 17.2222 6.59431 17.4764 6.59457 17.7415ZM5.59457 12.7415C5.00123 12.7415 4.42121 12.5656 3.92786 12.236C3.43451 11.9063 3.04999 11.4378 2.82293 10.8896C2.59587 10.3414 2.53646 9.73821 2.65221 9.15627C2.76797 8.57433 3.05369 8.03978 3.47325 7.62022C3.89281 7.20066 4.42736 6.91494 5.0093 6.79919C5.59124 6.68343 6.19444 6.74284 6.74262 6.9699C7.2908 7.19697 7.75933 7.58148 8.08898 8.07483C8.41862 8.56818 8.59457 9.1482 8.59457 9.74154C8.59364 10.5369 8.27728 11.2994 7.71487 11.8618C7.15246 12.4242 6.38994 12.7406 5.59457 12.7415ZM12.5946 15.7415C12.5946 15.9393 12.5359 16.1327 12.426 16.2971C12.3162 16.4616 12.16 16.5897 11.9773 16.6654C11.7945 16.7411 11.5935 16.7609 11.3995 16.7223C11.2055 16.6837 11.0273 16.5885 10.8875 16.4486C10.7476 16.3088 10.6524 16.1306 10.6138 15.9366C10.5752 15.7427 10.595 15.5416 10.6707 15.3589C10.7464 15.1761 10.8746 15.02 11.039 14.9101C11.2034 14.8002 11.3968 14.7415 11.5946 14.7415C11.8597 14.7418 12.1139 14.8472 12.3014 15.0347C12.4889 15.2222 12.5943 15.4764 12.5946 15.7415ZM13.5946 10.7415C13.3968 10.7415 13.2034 10.6829 13.039 10.573C12.8746 10.4631 12.7464 10.307 12.6707 10.1242C12.595 9.9415 12.5752 9.74043 12.6138 9.54645C12.6524 9.35247 12.7476 9.17429 12.8875 9.03444C13.0273 8.89458 13.2055 8.79934 13.3995 8.76076C13.5935 8.72217 13.7945 8.74198 13.9773 8.81766C14.16 8.89335 14.3162 9.02152 14.426 9.18597C14.5359 9.35042 14.5946 9.54376 14.5946 9.74154C14.5943 10.0067 14.4889 10.2609 14.3014 10.4484C14.1139 10.6358 13.8597 10.7413 13.5946 10.7415Z" fill="black"/>
<g filter="url(#filter0_d_495_1802)">
<circle cx="16.9998" cy="4.91406" r="4" fill="black"/>
<circle cx="16.9998" cy="4.91406" r="3.5" stroke="black"/>
</g>
<defs>
<filter id="filter0_d_495_1802" x="8.99976" y="0.914062" width="16" height="16" filterUnits="userSpaceOnUse" color-interpolation-filters="sRGB">
<feFlood flood-opacity="0" result="BackgroundImageFix"/>
<feColorMatrix in="SourceAlpha" type="matrix" values="0 0 0 0 0 0 0 0 0 0 0 0 0 0 0 0 0 0 127 0" result="hardAlpha"/>
<feOffset dy="4"/>
<feGaussianBlur stdDeviation="2"/>
<feComposite in2="hardAlpha" operator="out"/>
<feColorMatrix type="matrix" values="0 0 0 0 0 0 0 0 0 0 0 0 0 0 0 0 0 0 0.25 0"/>
<feBlend mode="normal" in2="BackgroundImageFix" result="effect1_dropShadow_495_1802"/>
<feBlend mode="normal" in="SourceGraphic" in2="effect1_dropShadow_495_1802" result="shape"/>
</filter>
</defs>
</svg>
